{
  "accessors": [
    {
      "bufferView": 2,
      "componentType": 5126,
      "count": 9607,
      "max": [
        0.8785920143127441,
        0.9485980272293091,
        0.8348690271377563
      ],
      "min": [
        -0.8789690136909485,
        -0.9493650197982788,
        -0.9483129978179932
      ],
      "type": "VEC3"
    },
    {
      "bufferView": 2,
      "byteOffset": 115284,
      "componentType": 5126,
      "count": 9607,
      "max": [
        0.9999821186065674,
        0.9999843835830688,
        0.9998399615287781
      ],
      "min": [
        -0.9999821186065674,
        -0.9999231100082397,
        -0.9999997615814209
      ],
      "type": "VEC3"
    },
    {
      "bufferView": 3,
      "componentType": 5126,
      "count": 9607,
      "max": [
        0.9999991059303284,
        0.9984564781188965,
        0.9969812035560608,
        1.0
      ],
      "min": [
        -0.9985070824623108,
        -0.999637246131897,
        -0.9110605716705322,
        1.0
      ],
      "type": "VEC4"
    },
    {
      "bufferView": 1,
      "componentType": 5126,
      "count": 9607,
      "max": [
        1.0,
        1.0
      ],
      "min": [
        0.0,
        0.0
      ],
      "type": "VEC2"
    },
    {
      "bufferView": 0,
      "componentType": 5125,
      "count": 53628,
      "type": "SCALAR"
    }
  ],
  "asset": {
    "extras": {
      "author": "Abdur Razzak Sawon (https://sketchfab.com/md.abdur.razzak.sawon)",
      "license": "CC-BY-4.0 (http://creativecommons.org/licenses/by/4.0/)",
      "source": "https://sketchfab.com/3d-models/apple-fruit-3d-3cb3ac28e00940cca19f4d0566d34be5",
      "title": "Apple fruit 3D"
    },
    "generator": "Sketchfab-16.16.0",
    "version": "2.0"
  },
  "bufferViews": [
    {
      "buffer": 0,
      "byteLength": 214512,
      "name": "floatBufferViews",
      "target": 34963
    },
    {
      "buffer": 0,
      "byteLength": 76856,
      "byteOffset": 214512,
      "byteStride": 8,
      "name": "floatBufferViews",
      "target": 34962
    },
    {
      "buffer": 0,
      "byteLength": 230568,
      "byteOffset": 291368,
      "byteStride": 12,
      "name": "floatBufferViews",
      "target": 34962
    },
    {
      "buffer": 0,
      "byteLength": 153712,
      "byteOffset": 521936,
      "byteStride": 16,
      "name": "floatBufferViews",
      "target": 34962
    }
  ],
  "buffers": [
    {
      "byteLength": 675648,
      "uri": "scene.bin"
    }
  ],
  "images": [
    {
      "uri": "textures/place_holder_baseColor.png"
    },
    {
      "uri": "textures/place_holder_metallicRoughness.png"
    },
    {
      "uri": "textures/place_holder_normal.png"
    }
  ],
  "materials": [
    {
      "doubleSided": true,
      "name": "place_holder",
      "normalTexture": {
        "index": 2
      },
      "pbrMetallicRoughness": {
        "baseColorTexture": {
          "index": 0
        },
        "metallicRoughnessTexture": {
          "index": 1
        }
      }
    }
  ],
  "meshes": [
    {
      "name": "Object_0",
      "primitives": [
        {
          "attributes": {
            "NORMAL": 1,
            "POSITION": 0,
            "TANGENT": 2,
            "TEXCOORD_0": 3
          },
          "indices": 4,
          "material": 0,
          "mode": 4
        }
      ]
    }
  ],
  "nodes": [
    {
      "children": [
        1
      ],
      "matrix": [
        1.0,
        0.0,
        0.0,
        0.0,
        0.0,
        2.220446049250313e-16,
        -1.0,
        0.0,
        0.0,
        1.0,
        2.220446049250313e-16,
        0.0,
        0.0,
        0.0,
        0.0,
        1.0
      ],
      "name": "Sketchfab_model"
    },
    {
      "children": [
        2
      ],
      "name": "base.obj.cleaner.materialmerger.gles"
    },
    {
      "mesh": 0,
      "name": "Object_2"
    }
  ],
  "samplers": [
    {
      "magFilter": 9729,
      "minFilter": 9987,
      "wrapS": 10497,
      "wrapT": 10497
    }
  ],
  "scene": 0,
  "scenes": [
    {
      "name": "Sketchfab_Scene",
      "nodes": [
        0
      ]
    }
  ],
  "textures": [
    {
      "sampler": 0,
      "source": 0
    },
    {
      "sampler": 0,
      "source": 1
    },
    {
      "sampler": 0,
      "source": 2
    }
  ]
}
